# File created by Blade
# Date/Time:  Thu Jan 22 16:10:14 2015
# Frame Rate: 120.000 fps
#------------------------------------------------------
:FULLY-SPECIFIED
:DEGREES
1405
root 1.436657 34.501345 0.050290 10.377600 14.222400 6.517323
RightUpLeg 0.597075 -17.700829 -29.334149
RightLeg -5.052547 -0.000000 0.000000
RightFoot -5.272871 -22.107374 33.068008
RightToeBase 12.841348 -0.000000 -0.000000
LeftUpLeg -20.619336 -7.634306 17.122966
LeftLeg 9.208419 -0.000000 -0.000000
LeftFoot -4.422097 6.439285 -34.587761
LeftToeBase 10.465858 -0.000000 -0.000000
Spine 34.519872 4.233850 -10.718260
RightShoulder 3.636897 -15.423623 -27.448298
RightArm 15.911586 8.152989 58.510945
RightForeArm 18.069818 -0.000000 30.500121
RightHand 10.592630 -0.000000 -19.273627
RightHandThumb1 -24.326973 -0.000000 -32.862282
LeftShoulder -31.429886 35.762096 5.863400
LeftArm 37.448734 -32.485451 -63.676455
LeftForeArm 23.535724 -0.000000 7.400573
LeftHand -24.807357 -0.000000 9.633422
LeftHandThumb1 -26.253704 0.000000 33.147579
Head -12.334802 -2.562382 -4.015636
1406
root 1.416977 34.504947 0.165081 10.135123 14.075586 6.463963
RightUpLeg 0.927876 -17.510827 -29.317610
RightLeg -5.123175 -0.000000 0.000000
RightFoot -5.372483 -21.984204 33.216628
RightToeBase 12.829082 -0.000000 -0.000000
LeftUpLeg -20.116420 -7.501629 17.135114
LeftLeg 9.084682 -0.000000 -0.000000
LeftFoot -4.324293 6.469268 -34.664828
LeftToeBase 10.325870 -0.000000 -0.000000
Spine 33.927514 3.900172 -10.889976
RightShoulder 3.303571 -15.496523 -27.284390
RightArm 15.828546 8.663105 58.461147
RightForeArm 18.036424 -0.000000 30.414621
RightHand 10.913150 -0.000000 -19.767274
RightHandThumb1 -24.326973 -0.000000 -32.862282
LeftShoulder -31.406940 35.702100 5.991288
LeftArm 37.565452 -32.601816 -63.711197
LeftForeArm 23.717575 0.000000 7.385217
LeftHand -24.843859 -0.000000 9.636469
LeftHandThumb1 -26.253704 0.000000 33.147579
Head -12.604483 -2.486174 -3.576459
1407
root 1.397598 34.507280 0.280135 9.913066 13.890103 6.404090
RightUpLeg 1.210005 -17.305364 -29.292421
RightLeg -5.177911 -0.000000 0.000000
RightFoot -5.491993 -21.855517 33.400454
RightToeBase 12.825180 -0.000000 -0.000000
LeftUpLeg -19.639592 -7.256379 17.132902
LeftLeg 8.991331 -0.000000 -0.000000
LeftFoot -4.197474 6.413255 -34.582619
LeftToeBase 10.224459 -0.000000 -0.000000
Spine 33.303953 3.607042 -11.064651
RightShoulder 2.960882 -15.491208 -27.110487
RightArm 15.699509 9.134023 58.395499
RightForeArm 18.033118 0.000000 30.281088
RightHand 10.868509 0.000000 -19.573426
RightHandThumb1 -24.326973 -0.000000 -32.862282
LeftShoulder -31.362910 35.640586 6.146638
LeftArm 37.669444 -32.785755 -63.790150
LeftForeArm 23.921430 -0.000000 7.436719
LeftHand -25.002838 -0.000000 9.529290
LeftHandThumb1 -26.253704 0.000000 33.147579
Head -12.849003 -2.445670 -3.139980
1408
root 1.379591 34.510376 0.398687 9.704753 13.718799 6.351134
RightUpLeg 1.498996 -17.164258 -29.271146
RightLeg -5.249563 -0.000000 0.000000
RightFoot -5.526446 -21.720990 33.529891
RightToeBase 12.871730 -0.000000 -0.000000
LeftUpLeg -19.157917 -7.086065 17.137611
LeftLeg 8.879014 -0.000000 -0.000000
LeftFoot -4.161792 6.413648 -34.552730
LeftToeBase 10.119945 -0.000000 -0.000000
Spine 32.669480 3.304576 -11.211471
RightShoulder 2.602743 -15.473076 -26.951236
RightArm 15.557231 9.532862 58.320472
RightForeArm 18.008496 -0.000000 30.157189
RightHand 10.776421 -0.000000 -19.441522
RightHandThumb1 -24.326973 -0.000000 -32.862282
LeftShoulder -31.288954 35.533511 6.302919
LeftArm 37.656703 -32.909682 -63.747066
LeftForeArm 23.991953 -0.000000 7.516714
LeftHand -25.079147 -0.000000 9.428540
LeftHandThumb1 -26.253704 0.000000 33.147579
Head -13.017991 -2.348733 -2.712860
1409
root 1.363523 34.512841 0.515674 9.501270 13.531851 6.303592
RightUpLeg 1.774266 -16.955471 -29.259310
RightLeg -5.316426 -0.000000 0.000000
RightFoot -5.614089 -21.634494 33.724774
RightToeBase 12.923625 -0.000000 -0.000000
LeftUpLeg -18.694454 -6.810097 17.105570
LeftLeg 8.818151 -0.000000 -0.000000
LeftFoot -4.120608 6.319599 -34.452949
LeftToeBase 9.960885 -0.000000 -0.000000
Spine 32.032948 3.019517 -11.349695
RightShoulder 2.275596 -15.414810 -26.783044
RightArm 15.373222 9.992817 58.217812
RightForeArm 17.982592 -0.000000 30.066005
RightHand 10.635650 0.000000 -19.653561
RightHandThumb1 -24.326973 -0.000000 -32.862282
LeftShoulder -31.206124 35.450374 6.480137
LeftArm 37.668470 -32.992724 -63.688886
LeftForeArm 24.107471 0.000000 7.533311
LeftHand -25.117239 -0.000000 9.296316
LeftHandThumb1 -26.253704 0.000000 33.147579
Head -13.181044 -2.214958 -2.322694
1410
root 1.343470 34.515367 0.631820 9.298865 13.310592 6.236933
RightUpLeg 1.992699 -16.756811 -29.212682
RightLeg -5.340361 -0.000000 0.000000
RightFoot -5.684280 -21.529146 33.859103
RightToeBase 13.154822 -0.000000 -0.000000
LeftUpLeg -18.216849 -6.570274 17.117757
LeftLeg 8.747120 -0.000000 -0.000000
LeftFoot -4.158081 6.253712 -34.425949
LeftToeBase 9.993045 -0.000000 -0.000000
Spine 31.399026 2.794364 -11.475820
RightShoulder 1.923342 -15.407789 -26.608549
RightArm 15.258015 10.343873 58.067305
RightForeArm 18.000997 -0.000000 29.925559
RightHand 10.490412 -0.000000 -19.859858
RightHandThumb1 -24.326973 -0.000000 -32.862282
LeftShoulder -31.093603 35.400634 6.715174
LeftArm 37.676297 -33.108805 -63.728978
LeftForeArm 24.191973 -0.000000 7.642469
LeftHand -25.208780 -0.000000 9.287456
LeftHandThumb1 -26.253704 0.000000 33.147579
Head -13.333525 -2.093993 -1.885890
1411
root 1.326963 34.517927 0.748100 9.100565 13.091275 6.167433
RightUpLeg 2.209641 -16.557293 -29.161468
RightLeg -5.378394 -0.000000 0.000000
RightFoot -5.715631 -21.465516 33.911140
RightToeBase 13.160543 -0.000000 -0.000000
LeftUpLeg -17.746820 -6.379289 17.142809
LeftLeg 8.685485 -0.000000 -0.000000
LeftFoot -4.235131 6.227732 -34.448136
LeftToeBase 9.884997 -0.000000 -0.000000
Spine 30.774306 2.558078 -11.569995
RightShoulder 1.531798 -15.407995 -26.432105
RightArm 15.206801 10.704902 57.893613
RightForeArm 18.003492 -0.000000 29.787364
RightHand 10.255695 -0.000000 -20.059346
RightHandThumb1 -24.326973 -0.000000 -32.862282
LeftShoulder -31.045803 35.348837 6.886983
LeftArm 37.760077 -33.171904 -63.729161
LeftForeArm 24.308279 -0.000000 7.660842
LeftHand -25.205576 -0.000000 9.145877
LeftHandThumb1 -26.253704 0.000000 33.147579
Head -13.492822 -2.000406 -1.466138
